<svg width="24" height="24" viewBox="0 0 24 24" fill="none" xmlns="http://www.w3.org/2000/svg">
<rect width="10.4965" height="17.56" rx="1" transform="matrix(0.891501 0.453018 -0.379704 0.925108 14.6424 0)" fill="#3C3C3C"/>
<mask id="path-2-inside-1_30_136" fill="white">
<path d="M0 1.00787C0 0.455588 0.447715 0.00787354 1 0.00787354H15.7709C16.3232 0.00787354 16.7709 0.455589 16.7709 1.00787V23.0001C16.7709 23.5524 16.3231 24.0001 15.7709 24.0001H0.999999C0.447715 24.0001 0 23.5524 0 23.0001V1.00787Z"/>
</mask>
<path d="M0 1.00787C0 0.455588 0.447715 0.00787354 1 0.00787354H15.7709C16.3232 0.00787354 16.7709 0.455589 16.7709 1.00787V23.0001C16.7709 23.5524 16.3231 24.0001 15.7709 24.0001H0.999999C0.447715 24.0001 0 23.5524 0 23.0001V1.00787Z" fill="#3C3C3C"/>
<path d="M0 0.00787354H16.7709H0ZM16.7709 24.0001H0H16.7709ZM0 24.0001V0.00787354V24.0001ZM15.7709 0.00787354C16.4336 0.00787354 16.9709 0.545132 16.9709 1.20787V22.8001C16.9709 23.4628 16.4336 24.0001 15.7709 24.0001C16.2127 24.0001 16.5709 23.5524 16.5709 23.0001V1.00787C16.5709 0.455589 16.2127 0.00787354 15.7709 0.00787354Z" fill="white" mask="url(#path-2-inside-1_30_136)"/>
</svg>
